<svg width="104" height="26" viewBox="0 0 104 26" fill="none" xmlns="http://www.w3.org/2000/svg">
<path d="M30.1361 9.33612C30.6161 9.33612 31.0241 9.40412 31.3601 9.54012C31.6961 9.67612 32.0241 9.86812 32.3441 10.1161C32.4321 10.1881 32.5081 10.2241 32.5721 10.2241C32.7321 10.2241 32.8361 9.98412 32.8841 9.50412H33.1601C33.1281 10.0241 33.1121 10.9441 33.1121 12.2641H32.8361C32.7481 11.7441 32.6681 11.3721 32.5961 11.1481C32.5241 10.9161 32.4041 10.6961 32.2361 10.4881C31.9961 10.1761 31.6881 9.94412 31.3121 9.79212C30.9441 9.63212 30.5441 9.55212 30.1121 9.55212C29.5921 9.55212 29.1361 9.72412 28.7441 10.0681C28.3601 10.4121 28.0601 10.9041 27.8441 11.5441C27.6281 12.1761 27.5201 12.9201 27.5201 13.7761C27.5201 14.6481 27.6361 15.3961 27.8681 16.0201C28.1001 16.6441 28.4201 17.1201 28.8281 17.4481C29.2441 17.7681 29.7121 17.9281 30.2321 17.9281C30.6321 17.9281 31.0201 17.8521 31.3961 17.7001C31.7721 17.5481 32.0681 17.3201 32.2841 17.0161C32.4441 16.7921 32.5601 16.5521 32.6321 16.2961C32.7041 16.0401 32.7721 15.6481 32.8361 15.1201H33.1121C33.1121 16.4961 33.1281 17.4561 33.1601 18.0001H32.8841C32.8601 17.7441 32.8241 17.5641 32.7761 17.4601C32.7361 17.3481 32.6761 17.2921 32.5961 17.2921C32.5321 17.2921 32.4481 17.3241 32.3441 17.3881C31.9841 17.6441 31.6401 17.8401 31.3121 17.9761C30.9841 18.1041 30.5881 18.1681 30.1241 18.1681C29.3641 18.1681 28.6961 17.9961 28.1201 17.6521C27.5521 17.3081 27.1081 16.8121 26.7881 16.1641C26.4761 15.5081 26.3201 14.7281 26.3201 13.8241C26.3201 12.9441 26.4801 12.1641 26.8001 11.4841C27.1281 10.8041 27.5801 10.2761 28.1561 9.90012C28.7401 9.52412 29.4001 9.33612 30.1361 9.33612ZM40.0778 9.33612C40.8378 9.33612 41.5018 9.50812 42.0698 9.85212C42.6458 10.1961 43.0898 10.6961 43.4018 11.3521C43.7218 12.0001 43.8818 12.7761 43.8818 13.6801C43.8818 14.5601 43.7178 15.3401 43.3898 16.0201C43.0698 16.7001 42.6178 17.2281 42.0338 17.6041C41.4578 17.9801 40.8018 18.1681 40.0658 18.1681C39.3058 18.1681 38.6378 17.9961 38.0618 17.6521C37.4938 17.3081 37.0498 16.8121 36.7298 16.1641C36.4178 15.5081 36.2618 14.7281 36.2618 13.8241C36.2618 12.9441 36.4218 12.1641 36.7418 11.4841C37.0698 10.8041 37.5218 10.2761 38.0978 9.90012C38.6818 9.52412 39.3418 9.33612 40.0778 9.33612ZM40.0298 9.55212C39.5178 9.55212 39.0658 9.73212 38.6738 10.0921C38.2898 10.4441 37.9898 10.9401 37.7738 11.5801C37.5658 12.2201 37.4618 12.9521 37.4618 13.7761C37.4618 14.6081 37.5778 15.3401 37.8098 15.9721C38.0498 16.6041 38.3698 17.0921 38.7698 17.4361C39.1698 17.7801 39.6178 17.9521 40.1138 17.9521C40.6258 17.9521 41.0738 17.7761 41.4578 17.4241C41.8498 17.0641 42.1498 16.5641 42.3578 15.9241C42.5738 15.2841 42.6818 14.5521 42.6818 13.7281C42.6818 12.8961 42.5618 12.1641 42.3218 11.5321C42.0898 10.9001 41.7738 10.4121 41.3738 10.0681C40.9738 9.72412 40.5258 9.55212 40.0298 9.55212ZM54.1466 9.74412C53.8666 9.76012 53.6586 9.80412 53.5226 9.87612C53.3866 9.94012 53.2946 10.0521 53.2466 10.2121C53.1986 10.3641 53.1746 10.5921 53.1746 10.8961V18.0601H52.8986L47.8586 10.2721V16.6081C47.8586 16.9201 47.8826 17.1521 47.9306 17.3041C47.9866 17.4561 48.0906 17.5681 48.2426 17.6401C48.3946 17.7041 48.6306 17.7441 48.9506 17.7601V18.0001C48.6626 17.9761 48.2546 17.9641 47.7266 17.9641C47.2466 17.9641 46.8746 17.9761 46.6106 18.0001V17.7601C46.8906 17.7441 47.0986 17.7041 47.2346 17.6401C47.3706 17.5681 47.4626 17.4561 47.5106 17.3041C47.5586 17.1441 47.5826 16.9121 47.5826 16.6081V10.7761C47.5826 10.4721 47.5586 10.2521 47.5106 10.1161C47.4626 9.98012 47.3706 9.88812 47.2346 9.84012C47.1066 9.79212 46.8986 9.76012 46.6106 9.74412V9.50412C46.8746 9.52812 47.2466 9.54012 47.7266 9.54012C48.0866 9.54012 48.3986 9.52812 48.6626 9.50412L52.8986 16.0321V10.8961C52.8986 10.5841 52.8706 10.3521 52.8146 10.2001C52.7666 10.0481 52.6666 9.94012 52.5146 9.87612C52.3626 9.80412 52.1266 9.76012 51.8066 9.74412V9.50412C52.0946 9.52812 52.5026 9.54012 53.0306 9.54012C53.5106 9.54012 53.8826 9.52812 54.1466 9.50412V9.74412ZM65.3332 18.3481C65.1572 18.9561 64.9052 19.4121 64.5772 19.7161C64.1852 20.0761 63.6452 20.2561 62.9572 20.2561C62.5892 20.2561 62.2292 20.2001 61.8772 20.0881C61.5252 19.9761 61.0812 19.8001 60.5452 19.5601C59.9532 19.3041 59.4692 19.1121 59.0932 18.9841L58.8052 18.9001C58.4612 19.0201 58.1292 19.0801 57.8092 19.0801C57.4412 19.0801 57.2572 19.0001 57.2572 18.8401C57.2572 18.6721 57.4732 18.5881 57.9052 18.5881C58.1852 18.5881 58.4852 18.6201 58.8052 18.6841C59.0612 18.6121 59.3572 18.5001 59.6932 18.3481C59.9012 18.2521 60.0572 18.1841 60.1612 18.1441C59.4812 18.0801 58.8892 17.8681 58.3852 17.5081C57.8892 17.1481 57.5012 16.6561 57.2212 16.0321C56.9492 15.4001 56.8132 14.6641 56.8132 13.8241C56.8132 12.9441 56.9732 12.1641 57.2932 11.4841C57.6212 10.8041 58.0732 10.2761 58.6492 9.90012C59.2332 9.52412 59.8932 9.33612 60.6292 9.33612C61.3892 9.33612 62.0532 9.50812 62.6212 9.85212C63.1972 10.1961 63.6412 10.6961 63.9532 11.3521C64.2732 12.0001 64.4332 12.7761 64.4332 13.6801C64.4332 14.5121 64.2892 15.2561 64.0012 15.9121C63.7132 16.5601 63.3092 17.0801 62.7892 17.4721C62.2692 17.8561 61.6732 18.0801 61.0012 18.1441V18.1561C60.8092 18.1801 60.6412 18.2121 60.4972 18.2521C60.3612 18.3001 60.1772 18.3721 59.9452 18.4681C59.6572 18.5961 59.4172 18.6881 59.2252 18.7441C60.1132 18.9201 60.8652 19.0601 61.4812 19.1641C62.1052 19.2681 62.6212 19.3201 63.0292 19.3201C63.5972 19.3201 64.0452 19.2361 64.3732 19.0681C64.7092 18.9081 64.9692 18.6441 65.1532 18.2761L65.3332 18.3481ZM58.0132 13.7761C58.0132 14.6081 58.1292 15.3401 58.3612 15.9721C58.6012 16.6041 58.9212 17.0921 59.3212 17.4361C59.7212 17.7801 60.1692 17.9521 60.6652 17.9521C61.1772 17.9521 61.6252 17.7761 62.0092 17.4241C62.4012 17.0641 62.7012 16.5641 62.9092 15.9241C63.1252 15.2841 63.2332 14.5521 63.2332 13.7281C63.2332 12.8961 63.1132 12.1641 62.8732 11.5321C62.6412 10.9001 62.3252 10.4121 61.9252 10.0681C61.5252 9.72412 61.0772 9.55212 60.5812 9.55212C60.0692 9.55212 59.6172 9.73212 59.2252 10.0921C58.8412 10.4441 58.5412 10.9401 58.3252 11.5801C58.1172 12.2201 58.0132 12.9521 58.0132 13.7761ZM74.5414 9.74412C74.2614 9.76012 74.0534 9.80412 73.9174 9.87612C73.7814 9.94012 73.6894 10.0521 73.6414 10.2121C73.5934 10.3641 73.5694 10.5921 73.5694 10.8961V14.5081C73.5694 15.0841 73.5294 15.5801 73.4494 15.9961C73.3774 16.4041 73.2534 16.7561 73.0774 17.0521C72.8774 17.3961 72.5814 17.6681 72.1894 17.8681C71.8054 18.0681 71.3694 18.1681 70.8814 18.1681C70.0014 18.1681 69.3294 17.9521 68.8654 17.5201C68.5134 17.1921 68.2774 16.8201 68.1574 16.4041C68.0374 15.9881 67.9774 15.3681 67.9774 14.5441V10.7761C67.9774 10.4721 67.9534 10.2521 67.9054 10.1161C67.8574 9.98012 67.7654 9.88812 67.6294 9.84012C67.5014 9.79212 67.2934 9.76012 67.0054 9.74412V9.50412C67.3414 9.52812 67.8534 9.54012 68.5414 9.54012C69.1894 9.54012 69.6974 9.52812 70.0654 9.50412V9.74412C69.7774 9.76012 69.5654 9.79212 69.4294 9.84012C69.3014 9.88812 69.2134 9.98012 69.1654 10.1161C69.1174 10.2521 69.0934 10.4721 69.0934 10.7761V14.7481C69.0934 15.3881 69.1374 15.9201 69.2254 16.3441C69.3134 16.7681 69.4934 17.1081 69.7654 17.3641C70.0454 17.6201 70.4534 17.7481 70.9894 17.7481C71.8374 17.7481 72.4334 17.4761 72.7774 16.9321C73.1214 16.3881 73.2934 15.6241 73.2934 14.6401V10.8961C73.2934 10.4641 73.2134 10.1681 73.0534 10.0081C72.9014 9.84812 72.6174 9.76012 72.2014 9.74412V9.50412C72.4894 9.52812 72.8974 9.54012 73.4254 9.54012C73.9054 9.54012 74.2774 9.52812 74.5414 9.50412V9.74412ZM83.1891 16.4641C83.1891 16.9201 83.2171 17.4321 83.2731 18.0001C82.7291 17.9761 81.8131 17.9641 80.5251 17.9641C78.9891 17.9641 77.8291 17.9761 77.0451 18.0001V17.7601C77.3331 17.7441 77.5411 17.7121 77.6691 17.6641C77.8051 17.6161 77.8971 17.5241 77.9451 17.3881C77.9931 17.2521 78.0171 17.0321 78.0171 16.7281V10.7761C78.0171 10.4721 77.9931 10.2521 77.9451 10.1161C77.8971 9.98012 77.8051 9.88812 77.6691 9.84012C77.5411 9.79212 77.3331 9.76012 77.0451 9.74412V9.50412C77.8291 9.52812 78.9891 9.54012 80.5251 9.54012C81.7011 9.54012 82.5371 9.52812 83.0331 9.50412C82.9771 10.0321 82.9491 10.5041 82.9491 10.9201C82.9491 11.2321 82.9611 11.4801 82.9851 11.6641H82.7091C82.6531 11.1441 82.5811 10.7601 82.4931 10.5121C82.4051 10.2561 82.2571 10.0721 82.0491 9.96012C81.8411 9.84012 81.5251 9.78012 81.1011 9.78012H80.1051C79.8171 9.78012 79.6051 9.80412 79.4691 9.85212C79.3411 9.89212 79.2531 9.98012 79.2051 10.1161C79.1571 10.2521 79.1331 10.4721 79.1331 10.7761V13.6081H79.9251C80.2051 13.6081 80.4211 13.5441 80.5731 13.4161C80.7251 13.2801 80.8251 13.1241 80.8731 12.9481C80.9291 12.7641 80.9731 12.5361 81.0051 12.2641L81.0411 12.0241H81.3171C81.2931 12.3601 81.2811 12.7361 81.2811 13.1521V13.7281C81.2811 14.1361 81.3051 14.7041 81.3531 15.4321H81.0771C81.0691 15.3761 81.0451 15.1841 81.0051 14.8561C80.9651 14.5201 80.8531 14.2681 80.6691 14.1001C80.4931 13.9321 80.2451 13.8481 79.9251 13.8481H79.1331V16.7281C79.1331 17.0321 79.1571 17.2521 79.2051 17.3881C79.2531 17.5241 79.3411 17.6161 79.4691 17.6641C79.6051 17.7041 79.8171 17.7241 80.1051 17.7241H80.9811C81.4771 17.7241 81.8531 17.6601 82.1091 17.5321C82.3731 17.3961 82.5651 17.1841 82.6851 16.8961C82.8051 16.6001 82.8931 16.1681 82.9491 15.6001H83.2251C83.2011 15.8161 83.1891 16.1041 83.1891 16.4641ZM88.6056 9.37212C88.9576 9.37212 89.2336 9.41212 89.4336 9.49212C89.6416 9.56412 89.8536 9.67212 90.0696 9.81612C90.2456 9.92812 90.3816 9.98412 90.4776 9.98412C90.5496 9.98412 90.6056 9.94412 90.6456 9.86412C90.6856 9.77612 90.7176 9.64012 90.7416 9.45612H91.0176C90.9776 9.92012 90.9576 10.7361 90.9576 11.9041H90.6816C90.6336 11.2561 90.4456 10.7121 90.1176 10.2721C89.7976 9.82412 89.3296 9.60012 88.7136 9.60012C88.2816 9.60012 87.9296 9.73212 87.6576 9.99612C87.3856 10.2521 87.2496 10.5841 87.2496 10.9921C87.2496 11.2961 87.3176 11.5601 87.4536 11.7841C87.5976 12.0081 87.7776 12.2001 87.9936 12.3601C88.2096 12.5201 88.5176 12.7241 88.9176 12.9721L89.2656 13.1881C89.7696 13.5001 90.1656 13.7761 90.4536 14.0161C90.7496 14.2481 90.9856 14.5161 91.1616 14.8201C91.3376 15.1241 91.4256 15.4801 91.4256 15.8881C91.4256 16.6161 91.1856 17.1801 90.7056 17.5801C90.2256 17.9721 89.6176 18.1681 88.8816 18.1681C88.4976 18.1681 88.1816 18.1281 87.9336 18.0481C87.6936 17.9681 87.4616 17.8601 87.2376 17.7241C87.0616 17.6121 86.9256 17.5561 86.8296 17.5561C86.7576 17.5561 86.7016 17.6001 86.6616 17.6881C86.6216 17.7681 86.5896 17.9001 86.5656 18.0841H86.2896C86.3216 17.6441 86.3376 16.6841 86.3376 15.2041H86.6136C86.6696 16.0121 86.8696 16.6681 87.2136 17.1721C87.5576 17.6761 88.0856 17.9281 88.7976 17.9281C89.2296 17.9281 89.5976 17.7961 89.9016 17.5321C90.2056 17.2601 90.3576 16.8601 90.3576 16.3321C90.3576 15.8841 90.2056 15.5041 89.9016 15.1921C89.6056 14.8801 89.1336 14.5281 88.4856 14.1361C88.0136 13.8481 87.6296 13.5921 87.3336 13.3681C87.0456 13.1441 86.8096 12.8761 86.6256 12.5641C86.4416 12.2441 86.3496 11.8721 86.3496 11.4481C86.3496 10.7761 86.5656 10.2641 86.9976 9.91212C87.4296 9.55212 87.9656 9.37212 88.6056 9.37212ZM100.798 9.50412C100.742 10.0721 100.714 10.5841 100.714 11.0401C100.714 11.4401 100.726 11.7681 100.75 12.0241H100.474C100.41 11.4081 100.33 10.9521 100.234 10.6561C100.138 10.3521 99.9701 10.1321 99.7301 9.99612C99.4901 9.85212 99.1221 9.78012 98.6261 9.78012H97.9781V16.6081C97.9781 16.9441 98.0101 17.1881 98.0741 17.3401C98.1381 17.4921 98.2501 17.5961 98.4101 17.6521C98.5701 17.7081 98.8301 17.7441 99.1901 17.7601V18.0001C98.7741 17.9761 98.1861 17.9641 97.4261 17.9641C96.6261 17.9641 96.0341 17.9761 95.6501 18.0001V17.7601C96.0101 17.7441 96.2701 17.7081 96.4301 17.6521C96.5901 17.5961 96.7021 17.4921 96.7661 17.3401C96.8301 17.1881 96.8621 16.9441 96.8621 16.6081V9.78012H96.2141C95.7181 9.78012 95.3501 9.85212 95.1101 9.99612C94.8701 10.1321 94.7021 10.3521 94.6061 10.6561C94.5101 10.9521 94.4301 11.4081 94.3661 12.0241H94.0901C94.1141 11.7681 94.1261 11.4401 94.1261 11.0401C94.1261 10.5841 94.0981 10.0721 94.0421 9.50412C94.7061 9.52812 95.8341 9.54012 97.4261 9.54012C99.0101 9.54012 100.134 9.52812 100.798 9.50412Z" fill="#555248"/>
<path d="M21.0099 8.69422C21.8207 10.2063 22.1602 11.8437 22.0802 13.4397C21.9256 16.5216 20.2074 19.4467 17.2917 21.0102C15.5877 21.9239 13.7244 22.2392 11.9404 22.0298C9.08509 21.6946 6.43639 20.0159 4.97576 17.2919C2.60158 12.8642 4.2663 7.35014 8.694 4.97595C9.74841 4.41057 10.8633 4.07455 11.9822 3.94988C13.622 3.76717 15.2725 4.03821 16.754 4.70955C18.5103 5.50539 20.0281 6.86311 21.0099 8.69422Z" stroke="url(#paint0_linear_0_495)"/>
<defs>
<linearGradient id="paint0_linear_0_495" x1="3.75599" y1="11.7234" x2="23.9646" y2="12.9921" gradientUnits="userSpaceOnUse">
<stop offset="0.288448" stop-color="#555248"/>
<stop offset="0.780176" stop-color="#1B1A17" stop-opacity="0"/>
</linearGradient>
</defs>
</svg>
